<?xml version="1.0" encoding="UTF-8" standalone="no"?><svg xmlns="http://www.w3.org/2000/svg" xmlns:xlink="http://www.w3.org/1999/xlink" clip-rule="evenodd" stroke-miterlimit="4.00" viewBox="0 0 1024 768"><desc>SVG generated by Keynote</desc><defs></defs><g transform="matrix(1.00, 0.00, -0.00, -1.00, 0.0, 768.0)"><path d="M 0.0 768.0 L 1024.0 768.0 L 1024.0 0.0 L 0.0 0.0 Z M 0.0 768.0 " fill="#232121"></path><text xml:space="preserve" font-family="ProximaNova-Light" font-size="20.0" fill="#FEFFFF" transform="matrix(1.00, 0.00, -0.00, -1.00, 459.3, 737.2)">M</text><text xml:space="preserve" font-family="ProximaNova-Light" font-size="20.0" fill="#FEFFFF" transform="matrix(1.00, 0.00, -0.00, -1.00, 475.1, 737.2)">a</text><text xml:space="preserve" font-family="ProximaNova-Light" font-size="20.0" fill="#FEFFFF" transform="matrix(1.00, 0.00, -0.00, -1.00, 485.5, 737.2)">r</text><text xml:space="preserve" font-family="ProximaNova-Light" font-size="20.0" fill="#FEFFFF" transform="matrix(1.00, 0.00, -0.00, -1.00, 491.9, 737.2)">i</text><text xml:space="preserve" font-family="ProximaNova-Light" font-size="20.0" fill="#FEFFFF" transform="matrix(1.00, 0.00, -0.00, -1.00, 496.1, 737.2)">o</text><text xml:space="preserve" font-family="ProximaNova-Light" font-size="20.0" fill="#FEFFFF" transform="matrix(1.00, 0.00, -0.00, -1.00, 507.6, 737.2)"> </text><text xml:space="preserve" font-family="ProximaNova-Light" font-size="20.0" fill="#FEFFFF" transform="matrix(1.00, 0.00, -0.00, -1.00, 512.7, 737.2)">A</text><text xml:space="preserve" font-family="ProximaNova-Light" font-size="20.0" fill="#FEFFFF" transform="matrix(1.00, 0.00, -0.00, -1.00, 525.7, 737.2)">g</text><text xml:space="preserve" font-family="ProximaNova-Light" font-size="20.0" fill="#FEFFFF" transform="matrix(1.00, 0.00, -0.00, -1.00, 537.1, 737.2)">u</text><text xml:space="preserve" font-family="ProximaNova-Light" font-size="20.0" fill="#FEFFFF" transform="matrix(1.00, 0.00, -0.00, -1.00, 547.9, 737.2)">i</text><text xml:space="preserve" font-family="ProximaNova-Light" font-size="20.0" fill="#FEFFFF" transform="matrix(1.00, 0.00, -0.00, -1.00, 552.2, 737.2)">a</text><text xml:space="preserve" font-family="ProximaNova-Light" font-size="20.0" fill="#FEFFFF" transform="matrix(1.00, 0.00, -0.00, -1.00, 562.6, 737.2)">r</text><text xml:space="preserve" font-family="ProximaNova-Light" font-size="20.0" fill="#FEFFFF" transform="matrix(1.00, 0.00, -0.00, -1.00, 568.9, 737.2)"> </text><text xml:space="preserve" font-family="ProximaNova-Light" font-size="20.0" fill="#FEFFFF" transform="matrix(1.00, 0.00, -0.00, -1.00, 574.1, 737.2)">•</text><text xml:space="preserve" font-family="ProximaNova-Light" font-size="20.0" fill="#FEFFFF" transform="matrix(1.00, 0.00, -0.00, -1.00, 581.3, 737.2)"> </text><text xml:space="preserve" font-family="ProximaNova-Light" font-size="20.0" fill="#FEFFFF" transform="matrix(1.00, 0.00, -0.00, -1.00, 586.4, 737.2)">@</text><text xml:space="preserve" font-family="ProximaNova-Light" font-size="20.0" fill="#FEFFFF" transform="matrix(1.00, 0.00, -0.00, -1.00, 602.1, 737.2)">e</text><text xml:space="preserve" font-family="ProximaNova-Light" font-size="20.0" fill="#FEFFFF" transform="matrix(1.00, 0.00, -0.00, -1.00, 613.4, 737.2)">m</text><text xml:space="preserve" font-family="ProximaNova-Light" font-size="20.0" fill="#FEFFFF" transform="matrix(1.00, 0.00, -0.00, -1.00, 629.2, 737.2)">e</text><text xml:space="preserve" font-family="ProximaNova-Light" font-size="20.0" fill="#FEFFFF" transform="matrix(1.00, 0.00, -0.00, -1.00, 640.6, 737.2)">a</text><text xml:space="preserve" font-family="ProximaNova-Light" font-size="20.0" fill="#FEFFFF" transform="matrix(1.00, 0.00, -0.00, -1.00, 651.0, 737.2)">g</text><text xml:space="preserve" font-family="ProximaNova-Light" font-size="20.0" fill="#FEFFFF" transform="matrix(1.00, 0.00, -0.00, -1.00, 662.4, 737.2)">u</text><text xml:space="preserve" font-family="ProximaNova-Light" font-size="20.0" fill="#FEFFFF" transform="matrix(1.00, 0.00, -0.00, -1.00, 673.2, 737.2)">i</text><text xml:space="preserve" font-family="ProximaNova-Light" font-size="20.0" fill="#FEFFFF" transform="matrix(1.00, 0.00, -0.00, -1.00, 677.5, 737.2)">a</text><text xml:space="preserve" font-family="ProximaNova-Light" font-size="20.0" fill="#FEFFFF" transform="matrix(1.00, 0.00, -0.00, -1.00, 687.9, 737.2)">r</text><text xml:space="preserve" font-family="ProximaNova-Light" font-size="20.0" fill="#FEFFFF" transform="matrix(1.00, 0.00, -0.00, -1.00, 694.2, 737.2)"> </text><text xml:space="preserve" font-family="ProximaNova-Light" font-size="20.0" fill="#FEFFFF" transform="matrix(1.00, 0.00, -0.00, -1.00, 699.4, 737.2)">•</text><text xml:space="preserve" font-family="ProximaNova-Light" font-size="20.0" fill="#FEFFFF" transform="matrix(1.00, 0.00, -0.00, -1.00, 706.6, 737.2)"> </text><text xml:space="preserve" font-family="ProximaNova-Light" font-size="20.0" fill="#FEFFFF" transform="matrix(1.00, 0.00, -0.00, -1.00, 711.7, 737.2)">#</text><text xml:space="preserve" font-family="ProximaNova-Light" font-size="20.0" fill="#FEFFFF" transform="matrix(1.00, 0.00, -0.00, -1.00, 723.3, 737.2)">h</text><text xml:space="preserve" font-family="ProximaNova-Light" font-size="20.0" fill="#FEFFFF" transform="matrix(1.00, 0.00, -0.00, -1.00, 734.1, 737.2)">a</text><text xml:space="preserve" font-family="ProximaNova-Light" font-size="20.0" fill="#FEFFFF" transform="matrix(1.00, 0.00, -0.00, -1.00, 744.5, 737.2)">s</text><text xml:space="preserve" font-family="ProximaNova-Light" font-size="20.0" fill="#FEFFFF" transform="matrix(1.00, 0.00, -0.00, -1.00, 753.7, 737.2)">h</text><text xml:space="preserve" font-family="ProximaNova-Light" font-size="20.0" fill="#FEFFFF" transform="matrix(1.00, 0.00, -0.00, -1.00, 764.5, 737.2)">t</text><text xml:space="preserve" font-family="ProximaNova-Light" font-size="20.0" fill="#FEFFFF" transform="matrix(1.00, 0.00, -0.00, -1.00, 770.0, 737.2)">a</text><text xml:space="preserve" font-family="ProximaNova-Light" font-size="20.0" fill="#FEFFFF" transform="matrix(1.00, 0.00, -0.00, -1.00, 780.4, 737.2)">g</text><text xml:space="preserve" font-family="ProximaNova-Light" font-size="20.0" fill="#FEFFFF" transform="matrix(1.00, 0.00, -0.00, -1.00, 791.8, 737.2)"> </text><text xml:space="preserve" font-family="ProximaNova-Light" font-size="20.0" fill="#FEFFFF" transform="matrix(1.00, 0.00, -0.00, -1.00, 797.0, 737.2)">•</text><text xml:space="preserve" font-family="ProximaNova-Light" font-size="20.0" fill="#FEFFFF" transform="matrix(1.00, 0.00, -0.00, -1.00, 804.2, 737.2)"> </text><text xml:space="preserve" font-family="ProximaNova-Light" font-size="20.0" fill="#FEFFFF" transform="matrix(1.00, 0.00, -0.00, -1.00, 809.4, 737.2)">w</text><text xml:space="preserve" font-family="ProximaNova-Light" font-size="20.0" fill="#FEFFFF" transform="matrix(1.00, 0.00, -0.00, -1.00, 823.7, 737.2)">w</text><text xml:space="preserve" font-family="ProximaNova-Light" font-size="20.0" fill="#FEFFFF" transform="matrix(1.00, 0.00, -0.00, -1.00, 838.1, 737.2)">w</text><text xml:space="preserve" font-family="ProximaNova-Light" font-size="20.0" fill="#FEFFFF" transform="matrix(1.00, 0.00, -0.00, -1.00, 851.6, 737.2)">.</text><text xml:space="preserve" font-family="ProximaNova-Light" font-size="20.0" fill="#FEFFFF" transform="matrix(1.00, 0.00, -0.00, -1.00, 855.9, 737.2)">u</text><text xml:space="preserve" font-family="ProximaNova-Light" font-size="20.0" fill="#FEFFFF" transform="matrix(1.00, 0.00, -0.00, -1.00, 866.7, 737.2)">r</text><text xml:space="preserve" font-family="ProximaNova-Light" font-size="20.0" fill="#FEFFFF" transform="matrix(1.00, 0.00, -0.00, -1.00, 873.1, 737.2)">l</text><text xml:space="preserve" font-family="ProximaNova-Light" font-size="20.0" fill="#FEFFFF" transform="matrix(1.00, 0.00, -0.00, -1.00, 877.4, 737.2)">.</text><text xml:space="preserve" font-family="ProximaNova-Light" font-size="20.0" fill="#FEFFFF" transform="matrix(1.00, 0.00, -0.00, -1.00, 881.6, 737.2)">c</text><text xml:space="preserve" font-family="ProximaNova-Light" font-size="20.0" fill="#FEFFFF" transform="matrix(1.00, 0.00, -0.00, -1.00, 891.4, 737.2)">o</text><text xml:space="preserve" font-family="ProximaNova-Light" font-size="20.0" fill="#FEFFFF" transform="matrix(1.00, 0.00, -0.00, -1.00, 902.9, 737.2)">m</text><text xml:space="preserve" font-family="ProximaNova-Light" font-size="20.0" fill="#FEFFFF" transform="matrix(1.00, 0.00, -0.00, -1.00, 918.6, 737.2)">/</text><text xml:space="preserve" font-family="ProximaNova-Light" font-size="20.0" fill="#FEFFFF" transform="matrix(1.00, 0.00, -0.00, -1.00, 924.3, 737.2)">s</text><text xml:space="preserve" font-family="ProximaNova-Light" font-size="20.0" fill="#FEFFFF" transform="matrix(1.00, 0.00, -0.00, -1.00, 933.5, 737.2)">l</text><text xml:space="preserve" font-family="ProximaNova-Light" font-size="20.0" fill="#FEFFFF" transform="matrix(1.00, 0.00, -0.00, -1.00, 937.7, 737.2)">i</text><text xml:space="preserve" font-family="ProximaNova-Light" font-size="20.0" fill="#FEFFFF" transform="matrix(1.00, 0.00, -0.00, -1.00, 942.0, 737.2)">d</text><text xml:space="preserve" font-family="ProximaNova-Light" font-size="20.0" fill="#FEFFFF" transform="matrix(1.00, 0.00, -0.00, -1.00, 953.4, 737.2)">e</text><text xml:space="preserve" font-family="ProximaNova-Light" font-size="20.0" fill="#FEFFFF" transform="matrix(1.00, 0.00, -0.00, -1.00, 964.8, 737.2)">s</text><g><clipPath id="clip-0"><path d="M 808.4 733.5 L 974.0 733.5 L 974.0 735.9 L 808.4 735.9 Z M 808.4 733.5 "></path></clipPath><g clip-path="url(#clip-0)"><path d="M 355.1 26.3 L 519.7 26.3 " fill="none" stroke="#FEFFFF" stroke-width="0.40" stroke-miterlimit="0.00" transform="matrix(1.00, 0.00, 0.00, -1.00, 454.3, 761.0)"></path></g></g><g><clipPath id="clip-1"><path d="M 52.0 39.0 L 131.0 39.0 L 131.0 130.0 L 52.0 130.0 Z M 52.0 39.0 "></path></clipPath><g clip-path="url(#clip-1)"><path d="M 72.4 128.5 L 52.0 118.4 L 56.0 113.5 L 56.0 67.3 L 72.4 83.7 Z M 72.4 128.5 " fill="#000000"></path></g></g><g><clipPath id="clip-2"><path d="M 32.4 144.3 L 150.9 144.3 L 150.9 25.0 L 32.4 25.0 Z M 32.4 144.3 "></path></clipPath><g clip-path="url(#clip-2)"><g><clipPath id="clip-3"><path d="M 52.0 39.0 L 131.0 39.0 L 131.0 130.0 L 52.0 130.0 Z M 52.0 39.0 "></path></clipPath><g clip-path="url(#clip-3)"><path d="M 91.4 57.3 C 91.4 54.7 89.7 53.6 87.8 53.6 C 85.2 53.6 84.7 55.2 84.7 56.8 L 84.7 71.4 L 84.5 71.4 L 76.5 63.2 L 76.5 54.9 C 76.5 50.4 78.9 46.3 84.5 46.3 C 87.0 46.3 89.5 47.4 91.4 49.1 L 91.4 46.9 L 99.6 46.9 L 99.6 71.4 L 91.4 71.4 Z M 91.4 57.3 " fill="#FFFFFF"></path><path d="M 117.4 53.4 C 114.2 53.4 112.7 56.0 112.7 59.2 C 112.7 62.3 114.2 64.9 117.4 64.9 C 120.5 64.9 121.9 62.2 121.9 59.2 C 121.9 56.1 120.5 53.4 117.4 53.4 M 119.6 71.9 C 116.8 71.9 114.5 70.9 112.7 69.1 L 112.7 71.4 L 104.4 71.4 L 104.4 39.0 L 112.7 39.0 L 112.7 49.1 C 114.5 47.4 116.8 46.3 119.6 46.3 C 126.4 46.3 130.6 51.8 130.6 59.1 C 130.6 66.3 126.4 71.9 119.6 71.9 " fill="#FFFFFF"></path><path d="M 104.6 130.0 C 90.1 130.0 78.2 118.1 78.2 103.5 C 78.2 99.4 79.2 95.6 80.8 92.2 L 81.1 91.9 L 97.4 108.3 L 92.2 113.4 L 114.5 113.4 L 114.5 91.0 L 109.4 96.1 L 93.0 79.6 C 96.5 77.9 100.5 76.9 104.6 76.9 C 119.2 76.9 131.0 88.8 131.0 103.5 C 131.0 118.1 119.2 130.0 104.6 130.0 " fill="#000000"></path></g></g></g></g><text xml:space="preserve" font-family="ProximaNova-Light" font-size="62.0" fill="#FEFFFF" transform="matrix(1.00, 0.00, -0.00, -1.00, 56.0, 365.0)">U</text><text xml:space="preserve" font-family="ProximaNova-Light" font-size="62.0" fill="#FEFFFF" transform="matrix(1.00, 0.00, -0.00, -1.00, 108.5, 365.0)">N</text><text xml:space="preserve" font-family="ProximaNova-Light" font-size="62.0" fill="#FEFFFF" transform="matrix(1.00, 0.00, -0.00, -1.00, 161.7, 365.0)">D</text><text xml:space="preserve" font-family="ProximaNova-Light" font-size="62.0" fill="#FEFFFF" transform="matrix(1.00, 0.00, -0.00, -1.00, 214.5, 365.0)">E</text><text xml:space="preserve" font-family="ProximaNova-Light" font-size="62.0" fill="#FEFFFF" transform="matrix(1.00, 0.00, -0.00, -1.00, 259.4, 365.0)">R</text><text xml:space="preserve" font-family="ProximaNova-Light" font-size="62.0" fill="#FEFFFF" transform="matrix(1.00, 0.00, -0.00, -1.00, 306.2, 365.0)">S</text><text xml:space="preserve" font-family="ProximaNova-Light" font-size="62.0" fill="#FEFFFF" transform="matrix(1.00, 0.00, -0.00, -1.00, 351.9, 365.0)">T</text><text xml:space="preserve" font-family="ProximaNova-Light" font-size="62.0" fill="#FEFFFF" transform="matrix(1.00, 0.00, -0.00, -1.00, 392.5, 365.0)">A</text><text xml:space="preserve" font-family="ProximaNova-Light" font-size="62.0" fill="#FEFFFF" transform="matrix(1.00, 0.00, -0.00, -1.00, 442.6, 365.0)">N</text><text xml:space="preserve" font-family="ProximaNova-Light" font-size="62.0" fill="#FEFFFF" transform="matrix(1.00, 0.00, -0.00, -1.00, 495.8, 365.0)">D</text><text xml:space="preserve" font-family="ProximaNova-Light" font-size="62.0" fill="#FEFFFF" transform="matrix(1.00, 0.00, -0.00, -1.00, 548.7, 365.0)">I</text><text xml:space="preserve" font-family="ProximaNova-Light" font-size="62.0" fill="#FEFFFF" transform="matrix(1.00, 0.00, -0.00, -1.00, 572.4, 365.0)">N</text><text xml:space="preserve" font-family="ProximaNova-Light" font-size="62.0" fill="#FEFFFF" transform="matrix(1.00, 0.00, -0.00, -1.00, 625.7, 365.0)">G</text><text xml:space="preserve" font-family="LucidaGrande" font-size="62.0" fill="#FEFFFF" transform="matrix(1.00, 0.00, -0.00, -1.00, 679.7, 365.0)"> </text><text xml:space="preserve" font-family="ProximaNova-Light" font-size="62.0" fill="#FEFFFF" transform="matrix(1.00, 0.00, -0.00, -1.00, 56.0, 291.0)">C</text><text xml:space="preserve" font-family="ProximaNova-Light" font-size="62.0" fill="#FEFFFF" transform="matrix(1.00, 0.00, -0.00, -1.00, 107.5, 291.0)">U</text><text xml:space="preserve" font-family="ProximaNova-Light" font-size="62.0" fill="#FEFFFF" transform="matrix(1.00, 0.00, -0.00, -1.00, 160.0, 291.0)">S</text><text xml:space="preserve" font-family="ProximaNova-Light" font-size="62.0" fill="#FEFFFF" transform="matrix(1.00, 0.00, -0.00, -1.00, 205.7, 291.0)">T</text><text xml:space="preserve" font-family="ProximaNova-Light" font-size="62.0" fill="#FEFFFF" transform="matrix(1.00, 0.00, -0.00, -1.00, 248.8, 291.0)">O</text><text xml:space="preserve" font-family="ProximaNova-Light" font-size="62.0" fill="#FEFFFF" transform="matrix(1.00, 0.00, -0.00, -1.00, 306.1, 291.0)">M</text><text xml:space="preserve" font-family="ProximaNova-Light" font-size="62.0" fill="#FEFFFF" transform="matrix(1.00, 0.00, -0.00, -1.00, 365.0, 291.0)">I</text><text xml:space="preserve" font-family="ProximaNova-Light" font-size="62.0" fill="#FEFFFF" transform="matrix(1.00, 0.00, -0.00, -1.00, 388.8, 291.0)">Z</text><text xml:space="preserve" font-family="ProximaNova-Light" font-size="62.0" fill="#FEFFFF" transform="matrix(1.00, 0.00, -0.00, -1.00, 434.7, 291.0)">E</text><text xml:space="preserve" font-family="ProximaNova-Light" font-size="62.0" fill="#FEFFFF" transform="matrix(1.00, 0.00, -0.00, -1.00, 479.6, 291.0)">R</text><text xml:space="preserve" font-family="ProximaNova-Light" font-size="24.0" fill="#E22017" transform="matrix(1.00, 0.00, -0.00, -1.00, 56.0, 438.0)">W</text><text xml:space="preserve" font-family="ProximaNova-Light" font-size="24.0" fill="#E22017" transform="matrix(1.00, 0.00, -0.00, -1.00, 80.2, 438.0)">O</text><text xml:space="preserve" font-family="ProximaNova-Light" font-size="24.0" fill="#E22017" transform="matrix(1.00, 0.00, -0.00, -1.00, 102.3, 438.0)">R</text><text xml:space="preserve" font-family="ProximaNova-Light" font-size="24.0" fill="#E22017" transform="matrix(1.00, 0.00, -0.00, -1.00, 120.4, 438.0)">D</text><text xml:space="preserve" font-family="ProximaNova-Light" font-size="24.0" fill="#E22017" transform="matrix(1.00, 0.00, -0.00, -1.00, 140.9, 438.0)">C</text><text xml:space="preserve" font-family="ProximaNova-Light" font-size="24.0" fill="#E22017" transform="matrix(1.00, 0.00, -0.00, -1.00, 160.8, 438.0)">A</text><text xml:space="preserve" font-family="ProximaNova-Light" font-size="24.0" fill="#E22017" transform="matrix(1.00, 0.00, -0.00, -1.00, 180.2, 438.0)">M</text><text xml:space="preserve" font-family="ProximaNova-Light" font-size="24.0" fill="#E22017" transform="matrix(1.00, 0.00, -0.00, -1.00, 203.0, 438.0)">P</text><text xml:space="preserve" font-family="ProximaNova-Light" font-size="24.0" fill="#E22017" transform="matrix(1.00, 0.00, -0.00, -1.00, 220.5, 438.0)"> </text><text xml:space="preserve" font-family="ProximaNova-Light" font-size="24.0" fill="#E22017" transform="matrix(1.00, 0.00, -0.00, -1.00, 230.6, 438.0)">M</text><text xml:space="preserve" font-family="ProximaNova-Light" font-size="24.0" fill="#E22017" transform="matrix(1.00, 0.00, -0.00, -1.00, 253.4, 438.0)">É</text><text xml:space="preserve" font-family="ProximaNova-Light" font-size="24.0" fill="#E22017" transform="matrix(1.00, 0.00, -0.00, -1.00, 270.7, 438.0)">X</text><text xml:space="preserve" font-family="ProximaNova-Light" font-size="24.0" fill="#E22017" transform="matrix(1.00, 0.00, -0.00, -1.00, 290.0, 438.0)">I</text><text xml:space="preserve" font-family="ProximaNova-Light" font-size="24.0" fill="#E22017" transform="matrix(1.00, 0.00, -0.00, -1.00, 299.2, 438.0)">C</text><text xml:space="preserve" font-family="ProximaNova-Light" font-size="24.0" fill="#E22017" transform="matrix(1.00, 0.00, -0.00, -1.00, 319.2, 438.0)">O</text><text xml:space="preserve" font-family="ProximaNova-Light" font-size="24.0" fill="#E22017" transform="matrix(1.00, 0.00, -0.00, -1.00, 341.4, 438.0)"> </text><text xml:space="preserve" font-family="ProximaNova-Light" font-size="24.0" fill="#E22017" transform="matrix(1.00, 0.00, -0.00, -1.00, 351.4, 438.0)">2</text><text xml:space="preserve" font-family="ProximaNova-Light" font-size="24.0" fill="#E22017" transform="matrix(1.00, 0.00, -0.00, -1.00, 369.2, 438.0)">0</text><text xml:space="preserve" font-family="ProximaNova-Light" font-size="24.0" fill="#E22017" transform="matrix(1.00, 0.00, -0.00, -1.00, 387.7, 438.0)">1</text><text xml:space="preserve" font-family="ProximaNova-Light" font-size="24.0" fill="#E22017" transform="matrix(1.00, 0.00, -0.00, -1.00, 398.9, 438.0)">5</text></g></svg>